<svg id="SvgjsSvg1020" width="288" height="288" xmlns="http://www.w3.org/2000/svg" version="1.1" xmlns:xlink="http://www.w3.org/1999/xlink" xmlns:svgjs="http://svgjs.com/svgjs"><defs id="SvgjsDefs1021"></defs><g id="SvgjsG1022"><svg xmlns="http://www.w3.org/2000/svg" fill="none" viewBox="0 0 16 16" width="288" height="288"><path fill="#e8e8e8" d="M1 8C1 4.13401 4.13401 1 8 1C11.866 1 15 4.13401 15 8C15 11.866 11.866 15 8 15C4.13401 15 1 11.866 1 8ZM7.80861 4.53794C7.75051 4.56198 7.69602 4.59744 7.64857 4.64433L7.64625 4.64665L5.14645 7.14645C4.95118 7.34171 4.95118 7.65829 5.14645 7.85355C5.34171 8.04882 5.65829 8.04882 5.85355 7.85355L7.5 6.20711V11C7.5 11.2761 7.72386 11.5 8 11.5C8.27614 11.5 8.5 11.2761 8.5 11V6.20711L10.1464 7.85355C10.3417 8.04882 10.6583 8.04882 10.8536 7.85355C11.0488 7.65829 11.0488 7.34171 10.8536 7.14645L8.35375 4.64665L8.35143 4.64433C8.26112 4.55509 8.13699 4.5 8 4.5C7.93221 4.5 7.86756 4.51349 7.80861 4.53794Z" class="color212121 svgShape"></path></svg></g></svg>